<svg width="18" height="20" viewBox="0 0 18 20" fill="none" xmlns="http://www.w3.org/2000/svg">
<path d="M16.1175 1.83019C13.6092 -0.610064 9.52456 -0.610064 7.01895 1.83019L0.0692554 8.58623C0.0239892 8.63027 2.46165e-05 8.68985 2.46165e-05 8.75202C2.46165e-05 8.8142 0.0239892 8.87378 0.0692554 8.91782L1.0518 9.87371C1.09671 9.91722 1.1575 9.94164 1.22088 9.94164C1.28426 9.94164 1.34505 9.91722 1.38996 9.87371L8.33965 3.11767C9.20237 2.27835 10.35 1.81724 11.5695 1.81724C12.7891 1.81724 13.9367 2.27835 14.7967 3.11767C15.6595 3.957 16.1334 5.07351 16.1334 6.25737C16.1334 7.44382 15.6595 8.55774 14.7967 9.39706L7.71392 16.2852L6.56629 17.4017C5.49321 18.4457 3.74913 18.4457 2.67606 17.4017C2.15683 16.8966 1.87191 16.2256 1.87191 15.5107C1.87191 14.7957 2.15683 14.1247 2.67606 13.6196L9.70297 6.78583C9.88137 6.61486 10.1157 6.51901 10.366 6.51901H10.3686C10.6189 6.51901 10.8506 6.61486 11.0263 6.78583C11.2047 6.95939 11.3006 7.18736 11.3006 7.43087C11.3006 7.67178 11.2021 7.89975 11.0263 8.07072L5.28286 13.6533C5.23759 13.6973 5.21362 13.7569 5.21362 13.8191C5.21362 13.8812 5.23759 13.9408 5.28286 13.9848L6.2654 14.9407C6.31031 14.9842 6.3711 15.0087 6.43448 15.0087C6.49786 15.0087 6.55865 14.9842 6.60356 14.9407L12.3444 9.35561C12.8743 8.8401 13.1645 8.15621 13.1645 7.42828C13.1645 6.70034 12.8716 6.01386 12.3444 5.50094C11.25 4.43624 9.47131 4.43883 8.37693 5.50094L7.69528 6.1667L1.35268 12.3347C0.922206 12.751 0.580972 13.2464 0.348775 13.792C0.116577 14.3377 -0.00196421 14.9227 2.46165e-05 15.5132C2.46165e-05 16.7126 0.481976 17.8395 1.35268 18.6866C2.25535 19.5622 3.43759 20 4.61984 20C5.80209 20 6.98433 19.5622 7.88433 18.6866L16.1175 10.6819C17.329 9.50068 18 7.92824 18 6.25737C18.0027 4.5839 17.3316 3.01146 16.1175 1.83019Z" fill="#EDEDED" fill-opacity="0.25"/>
</svg>
