<svg width="64" height="31" viewBox="0 0 64 31" fill="none" xmlns="http://www.w3.org/2000/svg">
<path fill-rule="evenodd" clip-rule="evenodd" d="M29.6572 29.8313C30.6622 30.2476 31.768 30.3565 32.8349 30.1443C33.9018 29.9321 34.8818 29.4083 35.651 28.6391C36.4202 27.8699 36.944 26.8899 37.1562 25.823C37.3685 24.7561 37.2595 23.6502 36.8433 22.6452C36.427 21.6402 35.722 20.7813 34.8176 20.1769C34.3371 19.8559 33.8118 19.6144 33.2619 19.4585V18.1883L63.3614 0.500004L0.162354 0.5L30.2619 18.1883L30.2619 22.25L31.7619 22.25C32.2564 22.25 32.7397 22.3966 33.1508 22.6713C33.562 22.946 33.8824 23.3365 34.0716 23.7933C34.2608 24.2501 34.3103 24.7528 34.2139 25.2377C34.1174 25.7227 33.8793 26.1681 33.5297 26.5178C33.1801 26.8674 32.7346 27.1055 32.2496 27.202C31.7647 27.2984 31.262 27.2489 30.8052 27.0597C30.3484 26.8705 29.958 26.55 29.6833 26.1389C29.4085 25.7278 29.2619 25.2445 29.2619 24.75V23.75H26.2619V24.75C26.2619 25.8378 26.5845 26.9012 27.1888 27.8056C27.7932 28.7101 28.6522 29.4151 29.6572 29.8313ZM11.1886 3.5L52.3352 3.5L31.7619 15.5901L11.1886 3.5Z" fill="white"/>
</svg>
