<svg width="15" height="15" viewBox="0 0 15 15" fill="none" xmlns="http://www.w3.org/2000/svg">
<path fill-rule="evenodd" clip-rule="evenodd" d="M1.10953 3.41232C2.34542 1.39485 4.49685 0 6.59712 0H8.21895L7.54464 1.46748C6.42213 3.91044 6.88839 5.87433 8.03178 7.2174C9.21861 8.61144 11.2304 9.44424 13.3441 9.33027L15 9.24096L14.3622 10.7639C13.2014 13.5357 10.5757 14.9225 7.94415 14.9968C5.319 15.0709 2.56118 13.8483 1.04237 11.2795L1.02962 11.2579L1.01793 11.2358C-0.527325 8.30739 -0.163611 5.4906 1.10953 3.41232ZM2.85099 10.2497C1.6753 8.00433 1.98222 5.97105 2.88877 4.49121C3.44889 3.57684 4.21815 2.89804 5.00505 2.49609C4.48101 4.86435 5.09442 6.97458 6.44184 8.55726C7.70925 10.046 9.57384 11.0081 11.5877 11.3109C10.6567 12.3371 9.31254 12.8843 7.88505 12.9246C5.92725 12.9799 3.93954 12.0719 2.85099 10.2497Z" fill="white"/>
</svg>
