<svg width="15" height="15" viewBox="0 0 15 15" fill="none" xmlns="http://www.w3.org/2000/svg">
<path d="M7.5 0C3.35813 0 0 3.41071 0 7.61744C0 11.1868 2.42 14.1735 5.6825 15C5.6475 14.8972 5.625 14.7778 5.625 14.6299V13.328C5.32062 13.328 4.81062 13.328 4.6825 13.328C4.16937 13.328 3.71312 13.1039 3.49187 12.6875C3.24625 12.2247 3.20375 11.5169 2.595 11.084C2.41438 10.9399 2.55187 10.7755 2.76 10.7977C3.14437 10.9082 3.46312 11.176 3.76312 11.5734C4.06187 11.9714 4.2025 12.0616 4.76062 12.0616C5.03125 12.0616 5.43625 12.0457 5.8175 11.9848C6.0225 11.456 6.37687 10.9691 6.81 10.7393C4.3125 10.4784 3.12063 9.21646 3.12063 7.50317C3.12063 6.76555 3.43 6.05205 3.95563 5.45091C3.78313 4.85421 3.56625 3.63733 4.02188 3.17393C5.14563 3.17393 5.825 3.91409 5.98813 4.11405C6.54813 3.91917 7.16313 3.80872 7.80937 3.80872C8.45687 3.80872 9.07438 3.91917 9.63562 4.11532C9.79688 3.91663 10.4769 3.17393 11.6031 3.17393C12.0606 3.63796 11.8412 4.85992 11.6669 5.45535C12.1894 6.05523 12.4969 6.76682 12.4969 7.50317C12.4969 9.21519 11.3069 10.4765 8.81312 10.7387C9.49938 11.1024 10 12.1244 10 12.8944V14.6299C10 14.6959 9.98563 14.7435 9.97812 14.8C12.9006 13.7596 15 10.9412 15 7.61744C15 3.41071 11.6419 0 7.5 0Z" fill="#5F6169"/>
</svg>
