<svg width="15" height="15" viewBox="0 0 15 15" fill="none" xmlns="http://www.w3.org/2000/svg">
<path fill-rule="evenodd" clip-rule="evenodd" d="M12.5267 2.51522C12.8217 2.84711 12.8217 3.3852 12.5267 3.71709L11.7712 4.56696C11.4762 4.89885 10.9979 4.89885 10.7029 4.56696C10.4079 4.23507 10.4079 3.69696 10.7029 3.36507L11.4583 2.51522C11.7533 2.18332 12.2317 2.18332 12.5267 2.51522Z" fill="#5F6169"/>
<path fill-rule="evenodd" clip-rule="evenodd" d="M14.6539 7.50002C14.6539 7.96136 14.28 8.33534 13.8186 8.33534H12.6373C12.1759 8.33534 11.802 7.96136 11.802 7.50002C11.802 7.03868 12.1759 6.66467 12.6373 6.66467H13.8186C14.28 6.66467 14.6539 7.03868 14.6539 7.50002Z" fill="#5F6169"/>
<path fill-rule="evenodd" clip-rule="evenodd" d="M3.19803 7.50002C3.19803 7.96136 2.82403 8.33534 2.36269 8.33534H1.18135C0.720015 8.33534 0.346025 7.96136 0.346025 7.50002C0.346025 7.03868 0.720015 6.66467 1.18135 6.66467H2.36269C2.82403 6.66467 3.19803 7.03868 3.19803 7.50002Z" fill="#5F6169"/>
<path fill-rule="evenodd" clip-rule="evenodd" d="M7.5 14.654C7.03866 14.654 6.66468 14.28 6.66468 13.8187V12.6373C6.66468 12.176 7.03866 11.802 7.5 11.802C7.96134 11.802 8.33532 12.176 8.33532 12.6373V13.8187C8.33532 14.28 7.96134 14.654 7.5 14.654Z" fill="#5F6169"/>
<path fill-rule="evenodd" clip-rule="evenodd" d="M7.5 3.19804C7.03866 3.19804 6.66468 2.82404 6.66468 2.3627V1.18137C6.66468 0.720028 7.03866 0.346036 7.5 0.346039C7.96134 0.346039 8.33532 0.720028 8.33532 1.18137V2.3627C8.33532 2.82404 7.96134 3.19804 7.5 3.19804Z" fill="#5F6169"/>
<path fill-rule="evenodd" clip-rule="evenodd" d="M2.79851 12.5267C2.46661 12.2317 2.46661 11.7534 2.79851 11.4584L3.64836 10.7029C3.98025 10.4079 4.51836 10.4079 4.85025 10.7029C5.18214 10.9979 5.18214 11.4762 4.85025 11.7713L4.00038 12.5267C3.66849 12.8217 3.13041 12.8217 2.79851 12.5267Z" fill="#5F6169"/>
<path fill-rule="evenodd" clip-rule="evenodd" d="M4.85025 4.56696C4.51836 4.89885 3.98025 4.89885 3.64836 4.56696L2.79851 3.71709C2.46661 3.3852 2.46661 2.84711 2.79851 2.51522C3.13041 2.18332 3.66849 2.18332 4.00038 2.51522L4.85025 3.36507C5.18214 3.69696 5.18214 4.23507 4.85025 4.56696Z" fill="#5F6169"/>
<path fill-rule="evenodd" clip-rule="evenodd" d="M10.7029 10.7029C10.9979 10.4079 11.4762 10.4079 11.7712 10.7029L12.5267 11.4584C12.8217 11.7534 12.8217 12.2317 12.5267 12.5267C12.2317 12.8217 11.7533 12.8217 11.4583 12.5267L10.7029 11.7713C10.4079 11.4762 10.4079 10.9979 10.7029 10.7029Z" fill="#5F6169"/>
<path fill-rule="evenodd" clip-rule="evenodd" d="M5.4099 7.50711C5.4099 8.66538 6.34884 9.60435 7.50714 9.60435C8.66541 9.60435 9.60438 8.66538 9.60438 7.50711C9.60438 6.34884 8.66541 5.40987 7.50714 5.40987C6.34884 5.40987 5.4099 6.34884 5.4099 7.50711ZM7.50714 3.68274C5.39499 3.68274 3.68274 5.39496 3.68274 7.50711C3.68274 9.61926 5.39499 11.3315 7.50714 11.3315C9.61926 11.3315 11.3315 9.61926 11.3315 7.50711C11.3315 5.39496 9.61926 3.68274 7.50714 3.68274Z" fill="#5F6169"/>
</svg>
