<svg width="29" height="29" viewBox="0 0 29 29" fill="none" xmlns="http://www.w3.org/2000/svg">
<path d="M26.1382 19.878H9.27349L10.1203 18.1533L24.1898 18.1278C24.6656 18.1278 25.0734 17.788 25.1583 17.3179L27.1068 6.41172C27.1578 6.12568 27.0813 5.83115 26.8944 5.60742C26.802 5.49731 26.6868 5.40862 26.5567 5.34749C26.4266 5.28636 26.2848 5.25426 26.1411 5.25342L8.24263 5.19395L8.0897 4.47461C7.99341 4.01582 7.57993 3.68164 7.10981 3.68164H2.73433C2.46919 3.68164 2.21491 3.78697 2.02743 3.97445C1.83995 4.16193 1.73462 4.41621 1.73462 4.68135C1.73462 4.94649 1.83995 5.20077 2.02743 5.38825C2.21491 5.57573 2.46919 5.68105 2.73433 5.68105H6.29985L6.96821 8.85859L8.61362 16.8251L6.49526 20.283C6.38525 20.4315 6.31899 20.6078 6.30398 20.792C6.28896 20.9762 6.32579 21.1609 6.4103 21.3252C6.58022 21.6622 6.9229 21.8746 7.30239 21.8746H9.08091C8.70175 22.3782 8.49695 22.9916 8.49751 23.622C8.49751 25.2249 9.80024 26.5276 11.4032 26.5276C13.0061 26.5276 14.3088 25.2249 14.3088 23.622C14.3088 22.9904 14.0993 22.3759 13.7254 21.8746H18.2878C17.9087 22.3782 17.7039 22.9916 17.7044 23.622C17.7044 25.2249 19.0072 26.5276 20.6101 26.5276C22.213 26.5276 23.5158 25.2249 23.5158 23.622C23.5158 22.9904 23.3062 22.3759 22.9324 21.8746H26.1411C26.6905 21.8746 27.1408 21.4271 27.1408 20.8749C27.1391 20.61 27.0328 20.3566 26.845 20.1698C26.6572 19.9831 26.4031 19.8782 26.1382 19.878ZM8.65894 7.16504L24.9658 7.21885L23.3685 16.1624L10.5592 16.1851L8.65894 7.16504ZM11.4032 24.5169C10.9104 24.5169 10.5083 24.1147 10.5083 23.622C10.5083 23.1292 10.9104 22.727 11.4032 22.727C11.8959 22.727 12.2981 23.1292 12.2981 23.622C12.2981 23.8593 12.2038 24.0869 12.036 24.2548C11.8681 24.4226 11.6405 24.5169 11.4032 24.5169ZM20.6101 24.5169C20.1173 24.5169 19.7152 24.1147 19.7152 23.622C19.7152 23.1292 20.1173 22.727 20.6101 22.727C21.1029 22.727 21.505 23.1292 21.505 23.622C21.505 23.8593 21.4107 24.0869 21.2429 24.2548C21.0751 24.4226 20.8475 24.5169 20.6101 24.5169Z" fill="#393D45"/>
</svg>
