<svg width="25" height="25" viewBox="0 0 25 25" fill="none" xmlns="http://www.w3.org/2000/svg">
<path d="M23.9682 6.12217C23.5942 5.2562 23.055 4.47147 22.3806 3.81191C21.7058 3.15037 20.9101 2.62466 20.0369 2.26336C19.1314 1.88722 18.1602 1.69469 17.1797 1.69695C15.8042 1.69695 14.4621 2.07362 13.2958 2.78512C13.0168 2.95532 12.7517 3.14226 12.5006 3.34595C12.2495 3.14226 11.9844 2.95532 11.7054 2.78512C10.5391 2.07362 9.19702 1.69695 7.82146 1.69695C6.83095 1.69695 5.87113 1.88668 4.96432 2.26336C4.0882 2.62608 3.29858 3.14784 2.62057 3.81191C1.94534 4.47073 1.40594 5.25565 1.03296 6.12217C0.645124 7.0234 0.447021 7.98043 0.447021 8.96536C0.447021 9.8945 0.636754 10.8627 1.01343 11.8476C1.32872 12.6707 1.78073 13.5245 2.35829 14.3867C3.27347 15.7511 4.53184 17.1741 6.09434 18.6166C8.68363 21.0078 11.2478 22.6596 11.3566 22.7265L12.0179 23.1506C12.3109 23.3376 12.6875 23.3376 12.9805 23.1506L13.6418 22.7265C13.7506 22.6568 16.312 21.0078 18.9041 18.6166C20.4666 17.1741 21.7249 15.7511 22.6401 14.3867C23.2177 13.5245 23.6725 12.6707 23.985 11.8476C24.3616 10.8627 24.5514 9.8945 24.5514 8.96536C24.5542 7.98043 24.3561 7.0234 23.9682 6.12217ZM12.5006 20.9436C12.5006 20.9436 2.56756 14.5792 2.56756 8.96536C2.56756 6.12217 4.91968 3.81749 7.82146 3.81749C9.86108 3.81749 11.6301 4.95588 12.5006 6.61882C13.3711 4.95588 15.1401 3.81749 17.1797 3.81749C20.0815 3.81749 22.4336 6.12217 22.4336 8.96536C22.4336 14.5792 12.5006 20.9436 12.5006 20.9436Z" fill="#393D45"/>
</svg>
