<svg width="22" height="22" viewBox="0 0 22 22" fill="none" xmlns="http://www.w3.org/2000/svg">
<path d="M20.7629 19.4126L14.3863 13.036C15.3758 11.7568 15.9111 10.1927 15.9111 8.54762C15.9111 6.57842 15.1426 4.732 13.7528 3.33981C12.3631 1.94762 10.5118 1.18155 8.54503 1.18155C6.57829 1.18155 4.72695 1.95008 3.33721 3.33981C1.94503 4.72954 1.17896 6.57842 1.17896 8.54762C1.17896 10.5144 1.94748 12.3657 3.33721 13.7554C4.72695 15.1476 6.57583 15.9137 8.54503 15.9137C10.1901 15.9137 11.7517 15.3784 13.031 14.3914L19.4075 20.7655C19.4262 20.7842 19.4484 20.799 19.4729 20.8092C19.4973 20.8193 19.5235 20.8245 19.5499 20.8245C19.5764 20.8245 19.6026 20.8193 19.627 20.8092C19.6514 20.799 19.6737 20.7842 19.6923 20.7655L20.7629 19.6974C20.7816 19.6787 20.7964 19.6565 20.8066 19.6321C20.8167 19.6076 20.8219 19.5814 20.8219 19.555C20.8219 19.5285 20.8167 19.5023 20.8066 19.4779C20.7964 19.4535 20.7816 19.4313 20.7629 19.4126ZM12.4343 12.4369C11.3932 13.4755 10.0133 14.0476 8.54503 14.0476C7.07672 14.0476 5.69681 13.4755 4.65574 12.4369C3.61713 11.3958 3.04503 10.0159 3.04503 8.54762C3.04503 7.07932 3.61713 5.69695 4.65574 4.65834C5.69681 3.61972 7.07672 3.04762 8.54503 3.04762C10.0133 3.04762 11.3957 3.61726 12.4343 4.65834C13.4729 5.69941 14.045 7.07932 14.045 8.54762C14.045 10.0159 13.4729 11.3983 12.4343 12.4369Z" fill="#393D45"/>
</svg>
